Coordinates
version=1
nRows=16
nColumns=30
inDegrees=yes

Units are S.I. units (second, meters, Newtons, ...)
Angles are in degrees.

endheader
time	floatyaw	floatroll	floatpitch	floatx	floaty	floatz	pro_sup_l	deviation_l	flexion_l	cmc_flexion_l	cmc_abduction_l	mp_flexion_l	ip_flexion_l	2mcp_flexion_l	2mcp_abduction_l	2pm_flexion_l	2md_flexion_l	3mcp_flexion_l	3mcp_abduction_l	3pm_flexion_l	3md_flexion_l	4mcp_flexion_l	4mcp_abduction_l	4pm_flexion_l	4md_flexion_l	5mcp_flexion_l	5mcp_abduction_l	5pm_flexion_l	5md_flexion_l
0.005000	-160.147433	-5.066637	-73.570646	-0.061326	-0.108482	-0.119772	108.456972	26.985663	-3.983707	-1.215862	39.799413	-26.940675	-52.814255	42.327924	15.867564	62.638712	64.136273	58.775064	6.757353	74.752535	59.376450	56.786338	-5.863385	84.393774	66.378644	37.563250	-15.492699	85.665795	72.346627
0.015000	-160.147433	-5.066637	-73.570646	-0.061028	-0.104881	-0.118770	106.396881	26.532440	-2.829348	-1.131317	39.838100	-27.360202	-53.894361	44.399830	16.076886	60.123430	64.618059	60.093047	6.677905	73.452969	59.657881	57.966028	-5.946787	83.568164	66.982250	37.856269	-15.393661	85.246803	72.638482
0.025000	-160.147433	-5.066637	-73.570646	-0.060613	-0.100935	-0.117842	104.784017	26.175042	-1.902980	-0.767883	39.440511	-27.813760	-54.705861	46.197789	16.169488	57.438583	64.591905	60.663198	6.611647	71.976572	59.786013	58.517433	-6.009658	82.342345	67.392146	38.050513	-15.303742	84.318469	72.634297
0.035000	-160.147433	-5.066637	-73.570646	-0.060233	-0.097085	-0.117144	103.599753	25.904965	-1.060804	-0.318917	38.788852	-28.328974	-55.306543	47.673245	16.207041	55.015211	64.277208	60.830971	6.575078	70.642025	59.877523	58.787106	-6.059446	81.109647	67.705790	38.330692	-15.272402	83.245399	72.529736
0.045000	-160.147433	-5.066637	-73.570646	-0.059957	-0.093821	-0.116742	102.798462	25.691809	-0.244879	0.060676	38.102726	-28.926415	-55.804138	48.753086	16.228461	53.166066	63.847965	60.847929	6.567393	69.635945	59.933561	58.977665	-6.101383	80.138588	67.926748	38.662182	-15.302111	82.375585	72.443399
0.055000	-160.147433	-5.066637	-73.570646	-0.059773	-0.091507	-0.116608	102.309764	25.502175	0.506032	0.283702	37.552484	-29.600517	-56.290783	49.403975	16.254593	52.018599	63.439328	60.843572	6.577427	69.017789	59.921656	59.143519	-6.138189	79.554153	68.041814	38.893675	-15.368336	81.925343	72.428586
0.065000	-160.147433	-5.066637	-73.570646	-0.059626	-0.090258	-0.116643	102.045474	25.316401	1.104829	0.331571	37.202841	-30.305856	-56.785496	49.670743	16.292555	51.505347	63.144385	60.848629	6.591729	68.742129	59.833854	59.248567	-6.170276	79.345514	68.064284	38.888261	-15.439667	81.921446	72.485130
0.075000	-160.147433	-5.066637	-73.570646	-0.059456	-0.089917	-0.116730	101.914404	25.134512	1.486776	0.235250	37.006925	-30.968574	-57.226842	49.666418	16.339490	51.421790	63.003264	60.841609	6.600724	68.697446	59.699041	59.239182	-6.196676	79.403458	68.032548	38.607165	-15.491812	82.229931	72.575233
0.085000	-160.147433	-5.066637	-73.570646	-0.059230	-0.090149	-0.116779	101.840044	24.970749	1.654837	0.049986	36.845734	-31.518947	-57.516884	49.524347	16.386708	51.523079	62.998936	60.789767	6.601247	68.752923	59.562773	59.090182	-6.216318	79.578740	67.987101	38.112146	-15.513757	82.644755	72.646904
0.095000	-160.147433	-5.066637	-73.570646	-0.058948	-0.090587	-0.116745	101.774097	24.843177	1.675293	-0.164867	36.586138	-31.922182	-57.579918	49.342669	16.423823	51.612886	63.068601	60.668250	6.595502	68.799308	59.460986	58.808585	-6.228847	79.740638	67.952167	37.506176	-15.506996	82.981075	72.657863
0.105000	-160.147433	-5.066637	-73.570646	-0.058627	-0.090958	-0.116627	101.701032	24.765449	1.635492	-0.356836	36.128638	-32.187766	-57.397242	49.151198	16.441910	51.590719	63.127802	60.459562	6.588081	68.773672	59.406173	58.410447	-6.234632	79.815609	67.931912	36.863325	-15.480442	83.131767	72.588707
0.115000	-160.147433	-5.066637	-73.570646	-0.058287	-0.091147	-0.116446	101.632289	24.743381	1.597074	-0.485079	35.431687	-32.355421	-57.005512	48.916339	16.435578	51.451475	63.098185	60.148694	6.583035	68.664819	59.389349	57.900614	-6.234380	79.796029	67.916663	36.194608	-15.444580	83.077656	72.441370
0.125000	-160.147433	-5.066637	-73.570646	-0.057935	-0.091174	-0.116231	101.592500	24.775012	1.573577	-0.523931	34.514667	-32.470557	-56.472144	48.579020	16.404604	51.252018	62.930673	59.727549	6.582291	68.501507	59.390784	57.275420	-6.228967	79.721289	67.891219	35.465548	-15.407660	82.864786	72.228868
0.135000	-160.147433	-5.066637	-73.570646	-0.057576	-0.091135	-0.116010	101.603245	24.852206	1.540217	-0.466986	33.445637	-32.564800	-55.868683	48.102889	16.355204	51.066301	62.619198	59.208147	6.585541	68.329694	59.390988	56.544449	-6.219658	79.643987	67.841245	34.645185	-15.374671	82.568635	71.965968
0.145000	-160.147433	-5.066637	-73.570646	-0.057217	-0.091126	-0.115803	101.671175	24.962961	1.462981	-0.328821	32.318209	-32.649550	-55.254384	47.505193	16.299947	50.947161	62.202751	58.631694	6.591037	68.188112	59.377415	55.749803	-6.208318	79.598605	67.757813	33.748133	-15.348041	82.260817	71.666738
0.155000	-160.147433	-5.066637	-73.570646	-0.056871	-0.091196	-0.115622	101.785337	25.094095	1.325878	-0.140170	31.223182	-32.720419	-54.670263	46.854428	16.255154	50.905790	61.755288	58.061562	6.596587	68.091872	59.346756	54.963576	-6.197200	79.586611	67.641099	32.840991	-15.328614	81.986789	71.348473
